# Blender v3.0.1 OBJ File: 'napkin.blend'
# www.blender.org
mtllib napkin.mtl
o napkin_Plane.001
v -0.999832 0.003128 0.999276
v 1.000000 0.000000 1.000000
v -1.000004 -0.001924 -1.000004
v 1.000000 0.000000 -1.000000
v -0.999960 -0.008710 -0.666608
v -0.999713 -0.014606 -0.333412
v -1.000081 -0.015381 -0.000079
v -0.999948 0.003471 0.333352
v -0.999659 -0.003920 0.666869
v -0.666634 -0.017555 0.987356
v -0.332700 -0.018206 0.980763
v 0.000026 -0.011239 0.999354
v 0.333333 0.000000 1.000000
v 0.666667 0.000000 1.000000
v 1.000000 0.000000 0.666667
v 1.000000 0.000000 0.333333
v 1.000000 0.000000 -0.000000
v 1.000000 0.000000 -0.333333
v 1.000000 0.000000 -0.666667
v 0.666667 0.000000 -1.000000
v 0.333332 -0.002936 -1.000018
v -0.000005 -0.019301 -1.000120
v -0.333340 -0.002807 -0.999991
v -0.666753 -0.025734 -0.999877
v -0.667049 -0.036171 0.666438
v -0.666700 -0.013636 0.333364
v -0.666640 -0.007387 -0.000030
v -0.666652 -0.000617 -0.333337
v -0.666696 -0.009571 -0.666550
v -0.333327 -0.000119 0.666580
v -0.333336 -0.001298 0.333336
v -0.333333 -0.000397 -0.000000
v -0.333328 -0.019473 -0.333331
v -0.333334 -0.000095 -0.666665
v 0.000003 -0.012375 0.666602
v 0.000000 -0.012163 0.333333
v 0.000001 -0.001510 0.000000
v 0.000008 -0.026593 -0.333330
v -0.000000 -0.001656 -0.666673
v 0.333333 -0.000719 0.666667
v 0.333333 -0.000920 0.333333
v 0.333333 0.000000 -0.000000
v 0.333333 0.000000 -0.333333
v 0.333333 0.000000 -0.666667
v 0.666667 0.000000 0.666667
v 0.666667 0.000000 0.333333
v 0.666667 0.000000 -0.000000
v 0.666667 0.000000 -0.333333
v 0.666667 0.000000 -0.666667
v -0.970648 0.028494 1.123489
v 1.029894 0.030523 1.079786
v -1.028517 0.024915 -0.875642
v 0.970648 0.028494 -0.933539
v -1.018655 0.017483 -0.542517
v -1.008928 0.003952 -0.209422
v -0.999487 0.013618 0.123891
v -0.990160 0.010126 0.456797
v -0.980773 0.004497 0.790151
v -0.637395 0.019874 1.100235
v -0.303801 0.012671 1.084380
v 0.028947 0.022591 1.094217
v 0.362127 0.028494 1.084912
v 0.695320 0.028494 1.075268
v 1.018870 0.028494 0.732429
v 1.009226 0.028494 0.399236
v 0.999581 0.028494 0.066042
v 0.989937 0.028494 -0.267152
v 0.980293 0.028494 -0.600346
v 0.637455 0.028494 -0.923895
v 0.304260 0.024778 -0.914274
v -0.028937 0.012462 -0.904706
v -0.362149 0.023770 -0.894898
v -0.695424 -0.002625 -0.885109
v -0.647420 -0.012410 0.780053
v -0.656798 0.017317 0.447451
v -0.666400 0.017614 0.114273
v -0.676014 0.024721 -0.218950
v -0.685664 0.026012 -0.552108
v -0.313687 0.022702 0.767829
v -0.323550 0.027389 0.437813
v -0.333194 0.028212 0.104620
v -0.342834 0.012039 -0.228573
v -0.352481 0.024141 -0.561768
v 0.019303 0.017241 0.761022
v 0.009644 0.010166 0.428169
v -0.000000 0.028474 0.094975
v -0.009637 0.002277 -0.238216
v -0.019286 0.019219 -0.571411
v 0.352482 0.028494 0.751718
v 0.342838 0.026553 0.418524
v 0.333194 0.028494 0.085331
v 0.323549 0.028494 -0.247863
v 0.313905 0.028494 -0.581057
v 0.685676 0.028494 0.742074
v 0.676032 0.028494 0.408880
v 0.666388 0.028494 0.075686
v 0.656743 0.028494 -0.257508
v 0.647099 0.028494 -0.590701
v -0.985324 0.014247 1.138593
v -0.652023 0.007305 1.121610
v -0.318405 0.000894 1.109930
v 0.014477 0.009694 1.123865
v 0.347730 0.014247 1.119304
v 0.680994 0.014247 1.114482
v 1.014257 0.014247 1.109660
v 1.046562 0.076506 0.978519
v -0.952709 0.051434 0.910951
v 1.114019 0.076507 -1.020343
v -0.884862 0.068240 -1.087816
v 1.102776 0.076507 -0.687199
v 1.091533 0.076507 -0.354056
v 1.080290 0.076507 -0.020912
v 1.069047 0.076506 0.312232
v 1.057805 0.076506 0.645375
v 0.713418 0.076506 0.967276
v 0.380274 0.076506 0.956033
v 0.047156 0.065680 0.944168
v -0.285414 0.056543 0.919807
v -0.619099 0.050442 0.913305
v -0.941438 0.044673 0.577416
v -0.929810 0.075083 0.244770
v -0.918447 0.044250 -0.088579
v -0.907092 0.063629 -0.421585
v -0.896102 0.058667 -0.754494
v -0.551755 0.060761 -1.076467
v -0.218558 0.067487 -1.065371
v 0.114583 0.058205 -1.054186
v 0.447731 0.076507 -1.042829
v 0.780875 0.076507 -1.031586
v 0.724661 0.076506 0.634133
v 0.735904 0.076506 0.300989
v 0.747147 0.076507 -0.032155
v 0.758389 0.076507 -0.365298
v 0.769632 0.076507 -0.698442
v 0.391517 0.076377 0.622890
v 0.402760 0.076507 0.289746
v 0.414003 0.076507 -0.043398
v 0.425246 0.076507 -0.376541
v 0.436489 0.076507 -0.709685
v 0.058374 0.060511 0.611647
v 0.069616 0.067390 0.278503
v 0.080860 0.074202 -0.054640
v 0.092107 0.061832 -0.387782
v 0.103344 0.073103 -0.720949
v -0.274770 0.073858 0.600404
v -0.263527 0.075838 0.267260
v -0.252282 0.067275 -0.065882
v -0.241033 0.045426 -0.399023
v -0.229799 0.075886 -0.732174
v -0.608083 0.057283 0.589063
v -0.596713 0.058889 0.256058
v -0.585424 0.075843 -0.077131
v -0.574185 0.076507 -0.410270
v -0.563007 0.062103 -0.743237
v 1.013062 0.048012 1.100948
v -0.982993 0.045038 0.975209
v 1.138323 0.048012 -0.895125
v -0.857786 0.034003 -1.020382
v 1.117446 0.048012 -0.562446
v 1.096569 0.048012 -0.229768
v 1.075693 0.048012 0.102911
v 1.054816 0.048012 0.435590
v 1.033939 0.048012 0.768269
v 0.680383 0.048012 1.080071
v 0.347704 0.048012 1.059194
v 0.015048 0.038106 1.037748
v -0.316983 0.027460 0.996838
v -0.650267 0.028761 0.983425
v -0.961583 0.035376 0.642908
v -0.941227 0.049807 0.310340
v -0.920566 0.029617 -0.022567
v -0.899475 0.036778 -0.355082
v -0.878613 0.031907 -0.687562
v -0.525146 0.028492 -0.999357
v -0.192395 0.037407 -0.978699
v 0.140283 0.032418 -0.957853
v 0.472966 0.048012 -0.936879
v 0.805645 0.048012 -0.916002
v 0.701260 0.048012 0.747392
v 0.722137 0.048012 0.414713
v 0.743014 0.048012 0.082034
v 0.763891 0.048012 -0.250645
v 0.784768 0.048012 -0.583323
v 0.368581 0.048012 0.726515
v 0.389458 0.047717 0.393836
v 0.410335 0.048012 0.061157
v 0.431212 0.048012 -0.271521
v 0.452089 0.048012 -0.604200
v 0.035908 0.035989 0.705492
v 0.056779 0.032295 0.372959
v 0.077656 0.048012 0.040280
v 0.098538 0.033445 -0.292397
v 0.119410 0.047853 -0.625078
v -0.296753 0.046850 0.684417
v -0.275900 0.046094 0.352082
v -0.255023 0.046671 0.019404
v -0.234137 0.013674 -0.313272
v -0.213268 0.044546 -0.645954
v -0.629762 0.014594 0.663683
v -0.608618 0.031893 0.331242
v -0.587704 0.045118 -0.001472
v -0.566825 0.048012 -0.334152
v -0.545979 0.041671 -0.666739
v 1.027220 0.062259 1.116538
v 0.694309 0.062259 1.100478
v 0.361397 0.062259 1.084419
v 0.028504 0.054554 1.067916
v -0.303822 0.042488 1.031743
v -0.637226 0.047479 1.021832
v -0.970214 0.060847 1.019847
v 1.110891 0.025502 -0.673511
v 1.145149 0.051004 -0.680355
v 1.114638 0.025502 -1.006781
v 1.152644 0.051005 -1.013562
v 1.107143 0.025502 -0.340241
v 1.137654 0.051004 -0.347148
v 1.103395 0.025502 -0.006971
v 1.130159 0.051004 -0.013941
v 1.099648 0.025502 0.326299
v 1.122663 0.051004 0.319266
v 1.095900 0.025502 0.659570
v 1.115168 0.051004 0.652472
v 1.092153 0.025502 0.992840
v 1.107673 0.051004 0.985679
v 1.084940 0.047563 1.057660
v 1.055516 0.023556 1.074740
v 1.034761 0.035727 1.120835
v 1.043026 0.050885 1.123720
v 1.052813 0.033236 1.102716
v 1.066996 0.041453 1.088092
vt 0.083230 0.605581
vt 0.004331 0.605725
vt 0.004331 0.526603
vt 0.083262 0.526803
vt 0.086651 0.998959
vt 0.007950 0.999900
vt 0.007017 0.921209
vt 0.085716 0.920312
vt 0.006123 0.842484
vt 0.084856 0.841672
vt 0.005321 0.763679
vt 0.084109 0.763010
vt 0.004690 0.684761
vt 0.083538 0.684314
vt 0.478327 0.994062
vt 0.400382 0.994845
vt 0.399582 0.916695
vt 0.477794 0.916022
vt 0.322220 0.995844
vt 0.321277 0.917557
vt 0.243846 0.996917
vt 0.242865 0.918485
vt 0.165304 0.997968
vt 0.164340 0.919411
vt 0.398864 0.838366
vt 0.477337 0.837674
vt 0.320433 0.839209
vt 0.241992 0.840062
vt 0.163477 0.840878
vt 0.398072 0.759907
vt 0.476803 0.758924
vt 0.319591 0.760869
vt 0.241192 0.761679
vt 0.162724 0.762368
vt 0.396964 0.681530
vt 0.475827 0.679744
vt 0.318666 0.682700
vt 0.240476 0.683412
vt 0.162128 0.683897
vt 0.395218 0.603858
vt 0.473372 0.600668
vt 0.317692 0.604967
vt 0.239955 0.605337
vt 0.161788 0.605477
vt 0.392804 0.527724
vt 0.465597 0.523076
vt 0.317087 0.527767
vt 0.239897 0.527424
vt 0.161842 0.527076
vt 0.914448 0.604504
vt 0.919730 0.526748
vt 0.997178 0.532573
vt 0.991675 0.609400
vt 0.899961 0.989551
vt 0.901868 0.913046
vt 0.978341 0.915209
vt 0.976294 0.991546
vt 0.904068 0.836286
vt 0.980687 0.838851
vt 0.906768 0.759281
vt 0.983555 0.762459
vt 0.910167 0.682023
vt 0.987159 0.685997
vt 0.515593 0.986809
vt 0.514964 0.908818
vt 0.592928 0.908507
vt 0.593104 0.986144
vt 0.670625 0.908768
vt 0.670208 0.986066
vt 0.748017 0.909663
vt 0.746994 0.986651
vt 0.825096 0.911134
vt 0.823552 0.987856
vt 0.514520 0.830448
vt 0.593012 0.830288
vt 0.671342 0.830830
vt 0.749356 0.832093
vt 0.826949 0.833968
vt 0.514089 0.751526
vt 0.593247 0.751337
vt 0.672381 0.752162
vt 0.751125 0.753915
vt 0.829280 0.756366
vt 0.513209 0.671784
vt 0.593507 0.671343
vt 0.673829 0.672576
vt 0.753502 0.675062
vt 0.832289 0.678315
vt 0.510301 0.591402
vt 0.593628 0.589883
vt 0.675949 0.591833
vt 0.756796 0.595509
vt 0.836210 0.599838
vt 0.498810 0.501279
vt 0.594572 0.503628
vt 0.679877 0.509542
vt 0.761562 0.515359
vt 0.841292 0.521027
vt 0.510842 0.990389
vt 0.509328 0.912418
vt 0.507895 0.834084
vt 0.506409 0.755234
vt 0.504447 0.675674
vt 0.501001 0.595604
vt 0.489429 0.506980
vt 0.088824 0.081947
vt 0.009348 0.079610
vt 0.011709 0.000100
vt 0.091219 0.002461
vt 0.079089 0.478036
vt 0.000100 0.476845
vt 0.001339 0.397564
vt 0.080496 0.399059
vt 0.002949 0.318136
vt 0.082235 0.319944
vt 0.004879 0.238641
vt 0.084254 0.240704
vt 0.007043 0.159125
vt 0.086477 0.161365
vt 0.457588 0.486653
vt 0.388527 0.484632
vt 0.392973 0.407359
vt 0.471185 0.411048
vt 0.313187 0.482548
vt 0.315597 0.404692
vt 0.235915 0.480817
vt 0.237709 0.402547
vt 0.157756 0.479346
vt 0.159306 0.400705
vt 0.396993 0.329445
vt 0.476485 0.333124
vt 0.318460 0.326490
vt 0.239959 0.324029
vt 0.161234 0.321884
vt 0.400373 0.250763
vt 0.479847 0.253994
vt 0.321352 0.247830
vt 0.242434 0.245222
vt 0.163428 0.242873
vt 0.403421 0.171738
vt 0.482781 0.174764
vt 0.324194 0.168843
vt 0.245013 0.166163
vt 0.165791 0.163688
vt 0.406374 0.092555
vt 0.485677 0.095576
vt 0.327023 0.089633
vt 0.247649 0.086900
vt 0.168253 0.084354
vt 0.409394 0.013253
vt 0.488682 0.016446
vt 0.329893 0.010230
vt 0.250320 0.007449
vt 0.170754 0.004884
vt 0.916901 0.101643
vt 0.918832 0.023231
vt 0.997178 0.025146
vt 0.995263 0.103492
vt 0.912412 0.493867
vt 0.912012 0.415520
vt 0.990014 0.415614
vt 0.990194 0.493046
vt 0.912472 0.337073
vt 0.990633 0.337887
vt 0.913571 0.258589
vt 0.991840 0.259920
vt 0.915103 0.180104
vt 0.993439 0.181769
vt 0.490587 0.494669
vt 0.510081 0.408469
vt 0.590010 0.412824
vt 0.584904 0.496754
vt 0.672179 0.414722
vt 0.671333 0.496713
vt 0.753270 0.415381
vt 0.753500 0.495922
vt 0.833145 0.415518
vt 0.833598 0.494861
vt 0.514643 0.328065
vt 0.593787 0.331496
vt 0.674087 0.333841
vt 0.754192 0.335316
vt 0.833672 0.336293
vt 0.517611 0.248368
vt 0.596754 0.251374
vt 0.676277 0.253833
vt 0.755742 0.255740
vt 0.834871 0.257259
vt 0.520354 0.169048
vt 0.599449 0.171883
vt 0.678587 0.174404
vt 0.757647 0.176559
vt 0.836505 0.178416
vt 0.523139 0.089883
vt 0.602128 0.092741
vt 0.681005 0.095362
vt 0.759771 0.097684
vt 0.838407 0.099746
vt 0.526062 0.010818
vt 0.604928 0.013861
vt 0.683549 0.016633
vt 0.762037 0.019077
vt 0.840455 0.021243
vt 0.483928 0.494892
vt 0.504167 0.411158
vt 0.507720 0.331396
vt 0.509749 0.251735
vt 0.511473 0.172398
vt 0.513200 0.093197
vt 0.515047 0.014092
vt 0.080188 0.489793
vt 0.001243 0.487881
vt 0.158802 0.491808
vt 0.236897 0.493950
vt 0.314083 0.496242
vt 0.389355 0.498488
vt 0.456500 0.499655
vt 0.390899 0.505624
vt 0.458595 0.505241
vt 0.315591 0.504133
vt 0.238426 0.502586
vt 0.160347 0.501174
vt 0.081741 0.499902
vt 0.002800 0.498741
vt 0.469706 0.499189
vt 0.475458 0.504816
vt 0.484377 0.499953
vt 0.482621 0.498139
vt 0.480019 0.501306
vt 0.476157 0.499990
vn 0.0000 -1.0000 0.0000
vn -0.0370 -0.9992 0.0141
vn 0.0485 -0.9984 0.0283
vn -0.0271 -0.9992 0.0305
vn 0.0270 -0.9992 0.0308
vn 0.0044 -1.0000 0.0044
vn -0.0785 -0.9961 0.0392
vn -0.0739 -0.9963 -0.0447
vn -0.0137 -0.9997 0.0189
vn 0.0330 -0.9994 -0.0113
vn 0.0197 -0.9998 0.0046
vn 0.0530 -0.9986 0.0007
vn 0.0723 -0.9969 -0.0319
vn 0.0290 -0.9995 -0.0107
vn -0.0178 -0.9997 0.0185
vn -0.0141 -0.9998 -0.0156
vn -0.0072 -0.9996 -0.0262
vn -0.0347 -0.9994 0.0015
vn -0.0180 -0.9997 -0.0173
vn -0.0123 -0.9977 0.0661
vn -0.0130 -0.9977 -0.0663
vn 0.0343 -0.9994 0.0028
vn 0.0343 -0.9994 -0.0000
vn 0.0191 -0.9997 -0.0174
vn 0.0421 -0.9984 0.0376
vn 0.0423 -0.9984 -0.0373
vn 0.0011 -1.0000 0.0011
vn 0.0025 -1.0000 0.0003
vn 0.0014 -1.0000 -0.0014
vn 0.0000 1.0000 0.0000
vn 0.0276 0.9991 -0.0326
vn -0.0380 0.9984 -0.0424
vn 0.0240 0.9996 -0.0114
vn -0.0328 0.9994 -0.0148
vn -0.0057 1.0000 -0.0054
vn 0.0338 0.9957 -0.0868
vn 0.0161 0.9985 0.0526
vn -0.0166 0.9998 0.0062
vn -0.0372 0.9993 -0.0028
vn -0.0433 0.9988 0.0235
vn -0.0432 0.9985 -0.0335
vn -0.0657 0.9964 0.0537
vn -0.0309 0.9995 0.0026
vn 0.0027 0.9999 -0.0137
vn 0.0224 0.9996 0.0194
vn -0.0067 0.9999 0.0074
vn 0.0339 0.9994 -0.0046
vn 0.0262 0.9993 0.0279
vn 0.0124 0.9979 -0.0638
vn 0.0232 0.9988 0.0429
vn -0.0259 0.9996 -0.0073
vn -0.0418 0.9991 -0.0123
vn -0.0237 0.9992 0.0310
vn -0.0404 0.9985 -0.0381
vn -0.0524 0.9983 0.0269
vn -0.0030 1.0000 -0.0028
vn -0.0028 1.0000 0.0030
vn -0.0031 1.0000 -0.0029
vn 0.0557 0.7826 0.6200
vn 0.0376 0.8772 0.4786
vn -0.0398 0.9199 0.3902
vn -0.0064 0.9217 0.3878
vn 0.0079 0.9315 0.3637
vn -0.0026 0.9151 0.4032
vn 0.0009 -0.9920 0.1260
vn 0.0009 -0.9927 0.1209
vn 0.0243 -0.9899 0.1400
vn 0.0159 -0.9879 0.1541
vn -0.0059 -0.9862 0.1652
vn -0.0352 -0.9904 0.1340
vn 0.0056 0.9999 0.0125
vn -0.0318 0.9992 -0.0234
vn 0.0192 0.9992 -0.0343
vn -0.0302 0.9994 -0.0156
vn -0.0002 1.0000 -0.0002
vn -0.0002 1.0000 0.0002
vn -0.0397 0.9992 -0.0093
vn -0.0378 0.9992 0.0092
vn -0.0175 0.9998 0.0096
vn -0.0248 0.9995 -0.0194
vn -0.0277 0.9995 0.0160
vn 0.0053 0.9998 0.0188
vn 0.0322 0.9994 0.0144
vn 0.0024 1.0000 -0.0025
vn -0.0332 0.9981 -0.0524
vn -0.0225 0.9978 0.0617
vn -0.0349 0.9987 0.0363
vn -0.0504 0.9987 0.0037
vn -0.0130 0.9998 0.0122
vn 0.0604 0.9977 -0.0297
vn 0.0251 0.9994 0.0249
vn -0.0174 0.9998 -0.0005
vn 0.0037 0.9988 0.0482
vn -0.0224 0.9995 -0.0216
vn -0.0676 0.9973 0.0277
vn -0.0235 0.9993 -0.0298
vn 0.0053 -0.9998 0.0170
vn 0.0221 -0.9995 0.0246
vn -0.0046 -0.9994 0.0336
vn 0.0157 -0.9994 0.0315
vn 0.0004 -1.0000 0.0005
vn 0.0005 -1.0000 -0.0004
vn 0.0326 -0.9995 0.0052
vn 0.0407 -0.9991 0.0085
vn 0.0246 -0.9994 -0.0225
vn 0.0204 -0.9995 0.0232
vn 0.0234 -0.9995 -0.0202
vn 0.0022 -0.9996 -0.0266
vn -0.0373 -0.9993 0.0043
vn -0.0171 -0.9995 -0.0256
vn 0.0271 -0.9970 0.0730
vn 0.0387 -0.9971 -0.0654
vn 0.0467 -0.9989 -0.0052
vn 0.0709 -0.9973 -0.0203
vn 0.0249 -0.9995 -0.0192
vn -0.0518 -0.9978 0.0419
vn -0.0447 -0.9982 -0.0396
vn -0.0571 -0.9978 0.0328
vn -0.0549 -0.9972 -0.0510
vn -0.0043 -0.9999 0.0102
vn 0.0409 -0.9991 -0.0125
vn 0.0304 -0.9994 0.0188
vn -0.0354 -0.7700 0.6371
vn -0.0301 -0.8395 0.5425
vn -0.0046 -0.8737 0.4864
vn -0.0206 -0.8967 0.4422
vn -0.0234 -0.9049 0.4249
vn -0.0469 -0.9171 0.3959
vn 0.0217 0.9994 -0.0261
vn -0.0035 0.9971 0.0764
vn -0.0408 0.9942 0.0998
vn -0.0317 0.9949 0.0954
vn -0.0044 0.9942 0.1077
vn -0.0043 0.9946 0.1039
vn -0.1265 0.9920 -0.0021
vn -0.1573 0.9875 -0.0027
vn -0.2075 0.9782 -0.0035
vn -0.3026 0.9531 -0.0051
vn -0.5335 0.8457 -0.0090
vn -0.9996 -0.0254 -0.0144
vn 0.5310 0.8472 0.0149
vn 0.4977 0.8673 0.0140
vn 0.4677 0.8838 0.0132
vn 0.4407 0.8976 0.0124
vn 0.4163 0.9091 0.0117
vn 0.3943 0.9189 0.0111
vn 0.2619 -0.9651 0.0015
vn 0.2525 -0.9676 0.0014
vn 0.2437 -0.9698 0.0014
vn 0.2355 -0.9719 0.0013
vn 0.2279 -0.9737 0.0013
vn 0.2207 -0.9754 0.0012
vn 0.3755 0.9142 0.1522
vn 0.2790 -0.9557 0.0940
vn -0.9930 -0.0046 0.1183
vn -0.6020 -0.0419 0.7974
vn 0.4611 -0.7845 0.4147
vn 0.6212 0.6966 0.3591
vn 0.6964 -0.3557 0.6234
vn 0.6900 -0.6616 0.2936
vn 0.8039 -0.5301 0.2699
vn 0.8279 -0.5608 0.0140
vn 0.7716 -0.6360 0.0130
vn 0.7173 -0.6967 0.0121
vn 0.6665 -0.7454 0.0112
vn 0.6200 -0.7845 0.0105
vn 0.5778 -0.8161 0.0097
usemtl lowPoly
s off
f 49/1/1 20/2/1 4/3/1 19/4/1
f 5/5/2 3/6/2 24/7/2 29/8/2
f 29/8/3 24/7/3 23/9/3 34/10/3
f 34/10/4 23/9/4 22/11/4 39/12/4
f 39/12/5 22/11/5 21/13/5 44/14/5
f 44/14/6 21/13/6 20/2/6 49/1/6
f 1/15/7 9/16/7 25/17/7 10/18/7
f 9/16/8 8/19/8 26/20/8 25/17/8
f 8/19/9 7/21/9 27/22/9 26/20/9
f 7/21/10 6/23/10 28/24/10 27/22/10
f 6/23/11 5/5/11 29/8/11 28/24/11
f 10/18/12 25/17/12 30/25/12 11/26/12
f 25/17/13 26/20/13 31/27/13 30/25/13
f 26/20/14 27/22/14 32/28/14 31/27/14
f 27/22/15 28/24/15 33/29/15 32/28/15
f 28/24/16 29/8/16 34/10/16 33/29/16
f 11/26/17 30/25/17 35/30/17 12/31/17
f 30/25/18 31/27/18 36/32/18 35/30/18
f 31/27/19 32/28/19 37/33/19 36/32/19
f 32/28/20 33/29/20 38/34/20 37/33/20
f 33/29/21 34/10/21 39/12/21 38/34/21
f 12/31/22 35/30/22 40/35/22 13/36/22
f 35/30/23 36/32/23 41/37/23 40/35/23
f 36/32/24 37/33/24 42/38/24 41/37/24
f 37/33/25 38/34/25 43/39/25 42/38/25
f 38/34/26 39/12/26 44/14/26 43/39/26
f 13/36/27 40/35/27 45/40/27 14/41/27
f 40/35/28 41/37/28 46/42/28 45/40/28
f 41/37/29 42/38/29 47/43/29 46/42/29
f 42/38/1 43/39/1 48/44/1 47/43/1
f 43/39/1 44/14/1 49/1/1 48/44/1
f 14/41/1 45/40/1 15/45/1 2/46/1
f 45/40/1 46/42/1 16/47/1 15/45/1
f 46/42/1 47/43/1 17/48/1 16/47/1
f 47/43/1 48/44/1 18/49/1 17/48/1
f 48/44/1 49/1/1 19/4/1 18/49/1
f 98/50/30 68/51/30 53/52/30 69/53/30
f 54/54/31 78/55/31 73/56/31 52/57/31
f 78/55/32 83/58/32 72/59/32 73/56/32
f 83/58/33 88/60/33 71/61/33 72/59/33
f 88/60/34 93/62/34 70/63/34 71/61/34
f 93/62/35 98/50/35 69/53/35 70/63/35
f 50/64/36 59/65/36 74/66/36 58/67/36
f 58/67/37 74/66/37 75/68/37 57/69/37
f 57/69/38 75/68/38 76/70/38 56/71/38
f 56/71/39 76/70/39 77/72/39 55/73/39
f 55/73/40 77/72/40 78/55/40 54/54/40
f 59/65/41 60/74/41 79/75/41 74/66/41
f 74/66/42 79/75/42 80/76/42 75/68/42
f 75/68/43 80/76/43 81/77/43 76/70/43
f 76/70/44 81/77/44 82/78/44 77/72/44
f 77/72/45 82/78/45 83/58/45 78/55/45
f 60/74/46 61/79/46 84/80/46 79/75/46
f 79/75/47 84/80/47 85/81/47 80/76/47
f 80/76/48 85/81/48 86/82/48 81/77/48
f 81/77/49 86/82/49 87/83/49 82/78/49
f 82/78/50 87/83/50 88/60/50 83/58/50
f 61/79/51 62/84/51 89/85/51 84/80/51
f 84/80/52 89/85/52 90/86/52 85/81/52
f 85/81/53 90/86/53 91/87/53 86/82/53
f 86/82/54 91/87/54 92/88/54 87/83/54
f 87/83/55 92/88/55 93/62/55 88/60/55
f 62/84/30 63/89/30 94/90/30 89/85/30
f 89/85/56 94/90/56 95/91/56 90/86/56
f 90/86/57 95/91/57 96/92/57 91/87/57
f 91/87/30 96/92/30 97/93/30 92/88/30
f 92/88/30 97/93/30 98/50/30 93/62/30
f 63/89/58 51/94/58 64/95/58 94/90/58
f 94/90/30 64/95/30 65/96/30 95/91/30
f 95/91/30 65/96/30 66/97/30 96/92/30
f 96/92/30 66/97/30 67/98/30 97/93/30
f 97/93/30 67/98/30 68/51/30 98/50/30
f 99/99/59 100/100/59 59/65/59 50/64/59
f 100/100/60 101/101/60 60/74/60 59/65/60
f 101/101/61 102/102/61 61/79/61 60/74/61
f 102/102/62 103/103/62 62/84/62 61/79/62
f 103/103/63 104/104/63 63/89/63 62/84/63
f 104/104/64 105/105/64 51/94/64 63/89/64
f 14/41/65 2/46/65 105/105/65 104/104/65
f 13/36/66 14/41/66 104/104/66 103/103/66
f 12/31/67 13/36/67 103/103/67 102/102/67
f 11/26/68 12/31/68 102/102/68 101/101/68
f 10/18/69 11/26/69 101/101/69 100/100/69
f 1/15/70 10/18/70 100/100/70 99/99/70
f 154/106/71 125/107/71 109/108/71 124/109/71
f 110/110/30 108/111/30 129/112/30 134/113/30
f 134/113/30 129/112/30 128/114/30 139/115/30
f 139/115/72 128/114/72 127/116/72 144/117/72
f 144/117/73 127/116/73 126/118/73 149/119/73
f 149/119/74 126/118/74 125/107/74 154/106/74
f 106/120/30 114/121/30 130/122/30 115/123/30
f 114/121/30 113/124/30 131/125/30 130/122/30
f 113/124/30 112/126/30 132/127/30 131/125/30
f 112/126/30 111/128/30 133/129/30 132/127/30
f 111/128/30 110/110/30 134/113/30 133/129/30
f 115/123/75 130/122/75 135/130/75 116/131/75
f 130/122/76 131/125/76 136/132/76 135/130/76
f 131/125/30 132/127/30 137/133/30 136/132/30
f 132/127/30 133/129/30 138/134/30 137/133/30
f 133/129/30 134/113/30 139/115/30 138/134/30
f 116/131/77 135/130/77 140/135/77 117/136/77
f 135/130/78 136/132/78 141/137/78 140/135/78
f 136/132/79 137/133/79 142/138/79 141/137/79
f 137/133/80 138/134/80 143/139/80 142/138/80
f 138/134/81 139/115/81 144/117/81 143/139/81
f 117/136/82 140/135/82 145/140/82 118/141/82
f 140/135/83 141/137/83 146/142/83 145/140/83
f 141/137/84 142/138/84 147/143/84 146/142/84
f 142/138/85 143/139/85 148/144/85 147/143/85
f 143/139/86 144/117/86 149/119/86 148/144/86
f 118/141/87 145/140/87 150/145/87 119/146/87
f 145/140/88 146/142/88 151/147/88 150/145/88
f 146/142/89 147/143/89 152/148/89 151/147/89
f 147/143/90 148/144/90 153/149/90 152/148/90
f 148/144/91 149/119/91 154/106/91 153/149/91
f 119/146/92 150/145/92 120/150/92 107/151/92
f 150/145/93 151/147/93 121/152/93 120/150/93
f 151/147/94 152/148/94 122/153/94 121/152/94
f 152/148/95 153/149/95 123/154/95 122/153/95
f 153/149/96 154/106/96 124/109/96 123/154/96
f 203/155/97 173/156/97 158/157/97 174/158/97
f 159/159/1 183/160/1 178/161/1 157/162/1
f 183/160/1 188/163/1 177/164/1 178/161/1
f 188/163/98 193/165/98 176/166/98 177/164/98
f 193/165/99 198/167/99 175/168/99 176/166/99
f 198/167/100 203/155/100 174/158/100 175/168/100
f 155/169/1 164/170/1 179/171/1 163/172/1
f 163/172/1 179/171/1 180/173/1 162/174/1
f 162/174/1 180/173/1 181/175/1 161/176/1
f 161/176/1 181/175/1 182/177/1 160/178/1
f 160/178/1 182/177/1 183/160/1 159/159/1
f 164/170/1 165/179/1 184/180/1 179/171/1
f 179/171/101 184/180/101 185/181/101 180/173/101
f 180/173/102 185/181/102 186/182/102 181/175/102
f 181/175/1 186/182/1 187/183/1 182/177/1
f 182/177/1 187/183/1 188/163/1 183/160/1
f 165/179/103 166/184/103 189/185/103 184/180/103
f 184/180/104 189/185/104 190/186/104 185/181/104
f 185/181/105 190/186/105 191/187/105 186/182/105
f 186/182/106 191/187/106 192/188/106 187/183/106
f 187/183/107 192/188/107 193/165/107 188/163/107
f 166/184/108 167/189/108 194/190/108 189/185/108
f 189/185/109 194/190/109 195/191/109 190/186/109
f 190/186/110 195/191/110 196/192/110 191/187/110
f 191/187/111 196/192/111 197/193/111 192/188/111
f 192/188/112 197/193/112 198/167/112 193/165/112
f 167/189/113 168/194/113 199/195/113 194/190/113
f 194/190/114 199/195/114 200/196/114 195/191/114
f 195/191/115 200/196/115 201/197/115 196/192/115
f 196/192/116 201/197/116 202/198/116 197/193/116
f 197/193/117 202/198/117 203/155/117 198/167/117
f 168/194/118 156/199/118 169/200/118 199/195/118
f 199/195/119 169/200/119 170/201/119 200/196/119
f 200/196/120 170/201/120 171/202/120 201/197/120
f 201/197/121 171/202/121 172/203/121 202/198/121
f 202/198/122 172/203/122 173/156/122 203/155/122
f 204/204/123 205/205/123 164/170/123 155/169/123
f 205/205/124 206/206/124 165/179/124 164/170/124
f 206/206/125 207/207/125 166/184/125 165/179/125
f 207/207/126 208/208/126 167/189/126 166/184/126
f 208/208/127 209/209/127 168/194/127 167/189/127
f 209/209/128 210/210/128 156/199/128 168/194/128
f 119/146/129 107/151/129 210/210/129 209/209/129
f 118/141/130 119/146/130 209/209/130 208/208/130
f 117/136/131 118/141/131 208/208/131 207/207/131
f 116/131/132 117/136/132 207/207/132 206/206/132
f 115/123/133 116/131/133 206/206/133 205/205/133
f 106/120/134 115/123/134 205/205/134 204/204/134
f 53/52/135 68/51/135 159/159/135 157/162/135
f 68/51/136 67/98/136 160/178/136 159/159/136
f 67/98/137 66/97/137 161/176/137 160/178/137
f 66/97/138 65/96/138 162/174/138 161/176/138
f 65/96/139 64/95/139 163/172/139 162/174/139
f 64/95/140 51/94/140 155/169/140 163/172/140
f 212/211/141 214/212/141 108/111/141 110/110/141
f 216/213/142 212/211/142 110/110/142 111/128/142
f 218/214/143 216/213/143 111/128/143 112/126/143
f 220/215/144 218/214/144 112/126/144 113/124/144
f 222/216/145 220/215/145 113/124/145 114/121/145
f 224/217/146 222/216/146 114/121/146 106/120/146
f 2/46/147 15/45/147 221/218/147 223/219/147
f 15/45/148 16/47/148 219/220/148 221/218/148
f 16/47/149 17/48/149 217/221/149 219/220/149
f 17/48/150 18/49/150 215/222/150 217/221/150
f 18/49/151 19/4/151 211/223/151 215/222/151
f 19/4/152 4/3/152 213/224/152 211/223/152
f 225/225/153 224/217/153 106/120/153 204/204/153
f 105/105/154 2/46/154 223/219/154 226/226/154
f 227/227/155 155/169/155 51/94/155 105/105/155
f 204/204/156 155/169/156 227/227/156 228/228/156
f 227/227/157 105/105/157 226/226/157 229/229/157
f 225/225/158 204/204/158 228/228/158 230/230/158
f 228/228/159 227/227/159 229/229/159 230/230/159
f 223/219/160 230/230/160 229/229/160 226/226/160
f 225/225/161 230/230/161 223/219/161 224/217/161
f 223/219/162 221/218/162 222/216/162 224/217/162
f 221/218/163 219/220/163 220/215/163 222/216/163
f 219/220/164 217/221/164 218/214/164 220/215/164
f 217/221/165 215/222/165 216/213/165 218/214/165
f 215/222/166 211/223/166 212/211/166 216/213/166
f 211/223/167 213/224/167 214/212/167 212/211/167
